# xmcd
#
# Track frame offsets:
#	150
#	18640
#	41877
#	60335
#
# Disc length: 1111 seconds
#
# Revision: 1
# Processed by: cddbd v1.5PL3 Copyright (c) Steve Scherf et al.
# Submitted via: CDex 1.50Beta5
#
DISCID=2e045504
DTITLE=Supermonkey's 4 - Aishite Mascut
DYEAR=1900
DGENRE=J-POP
TTITLE0=Aishite Mascut
TTITLE1=Wagamama Yurushite
TTITLE2=愛してマスカット(Original Karaoke)
TTITLE3=わがままを許して(Original Karaoke)
EXTD=
EXTT0=
EXTT1=
EXTT2=
EXTT3=
PLAYORDER=
